<svg width="79" height="65" viewBox="0 0 79 65" fill="none" xmlns="http://www.w3.org/2000/svg">
<path d="M0.787567 2.02282C0.247889 2.14015 -0.0944997 2.67275 0.0228201 3.21243L1.93469 12.007C2.05201 12.5467 2.58461 12.8891 3.12429 12.7718C3.66397 12.6544 4.00636 12.1218 3.88904 11.5822L2.1896 3.76475L10.007 2.06531C10.5467 1.94799 10.8891 1.41538 10.7718 0.875703C10.6544 0.336022 10.1218 -0.00636546 9.58215 0.110955L0.787567 2.02282ZM43 30L43.5408 29.1588L1.54075 2.15882L0.999997 3L0.45924 3.84118L42.4592 30.8412L43 30Z" fill="white"/>
<path d="M15.4853 60.2637L12.6573 52.9665L9.9682 54.0086L9.53819 52.8991L16.3263 50.2684L16.7563 51.378L14.0802 52.4151L16.9082 59.7122L15.4853 60.2637ZM24.5639 56.8954C23.1802 57.4317 21.9909 57.4622 20.9959 56.987C20.0097 56.5083 19.2686 55.6294 18.7729 54.3501C18.4154 53.4276 18.259 52.5723 18.3039 51.7841C18.3455 50.9873 18.6044 50.2864 19.0806 49.6814C19.5655 49.0731 20.2866 48.5834 21.2439 48.2124C21.74 48.0202 22.2017 47.8813 22.629 47.7958C23.0616 47.6982 23.4799 47.6411 23.884 47.6247L24.3595 48.8518C23.5447 48.8673 22.7022 49.0436 21.8319 49.3809C20.7615 49.7957 20.1183 50.3703 19.9024 51.1046C19.6952 51.8355 19.7973 52.7319 20.2088 53.7936C20.5832 54.7596 21.0944 55.4073 21.7426 55.7367C22.3907 56.066 23.1891 56.0469 24.1377 55.6793C24.8861 55.3892 25.4572 55.0678 25.851 54.715L24.9404 52.3653L22.8387 53.1798L22.4795 52.253L25.7952 50.968L27.3635 55.0147C27.1612 55.2933 26.8363 55.6044 26.3889 55.948C25.9468 56.2794 25.3385 56.5953 24.5639 56.8954ZM35.0606 52.8275C33.9727 53.2491 33.0441 53.2937 32.2747 52.9613C31.5018 52.6202 30.9131 51.9274 30.5083 50.8831C30.0868 49.7953 30.0777 48.8679 30.4812 48.1009C30.8933 47.3306 31.6128 46.7465 32.6398 46.3485C33.0662 46.1832 33.4348 46.0754 33.7456 46.025C34.0651 45.9713 34.385 45.9574 34.7054 45.9834L35.1152 47.0408C34.575 46.9899 33.9828 47.0892 33.3388 47.3388C32.6252 47.6154 32.1394 47.9888 31.8812 48.4592C31.6197 48.9209 31.6407 49.5434 31.9443 50.3266C32.231 51.0664 32.6115 51.5445 33.0858 51.7611C33.5567 51.9689 34.1838 51.9211 34.967 51.6176C35.5849 51.3781 36.1007 51.0431 36.5144 50.6125L36.9343 51.696C36.691 51.9204 36.4157 52.1272 36.1086 52.3162C35.8103 52.502 35.4609 52.6724 35.0606 52.8275ZM38.1512 51.4796L34.7414 42.6812L36.1643 42.1298L37.4088 45.3411C37.5943 45.019 37.8488 44.7201 38.1725 44.4446C38.4927 44.1603 38.8878 43.9271 39.3578 43.745C40.141 43.4414 40.7922 43.4043 41.3115 43.6334C41.8307 43.8626 42.2438 44.3732 42.5507 45.1651L44.1038 49.1727L42.694 49.7191L41.1662 45.7768C40.9807 45.2981 40.7464 45.0036 40.4633 44.893C40.189 44.7792 39.7994 44.82 39.2947 45.0156C38.9814 45.1371 38.6907 45.3298 38.4227 45.5938C38.1513 45.8491 37.9533 46.1261 37.8287 46.4246L39.5741 50.9282L38.1512 51.4796ZM47.4894 48.0108C47.0978 48.1626 46.7053 48.2346 46.3119 48.2269C45.9273 48.2158 45.5809 48.1098 45.2728 47.9089C44.9613 47.6993 44.7247 47.3856 44.5628 46.9679C44.3334 46.3761 44.3498 45.8242 44.6118 45.3123C44.8792 44.7883 45.435 44.3627 46.2791 44.0355L48.2633 43.2666L48.1571 42.9924C48.0424 42.6965 47.9035 42.4801 47.7403 42.3432C47.5858 42.2028 47.3716 42.1407 47.0975 42.1568C46.8322 42.1696 46.4689 42.2653 46.0077 42.4441C45.2767 42.7274 44.6357 43.1009 44.0847 43.5647L43.6749 42.5073C43.9096 42.2862 44.2135 42.0633 44.5869 41.8386C44.9602 41.6138 45.3775 41.412 45.8388 41.2333C46.7438 40.8825 47.5022 40.7989 48.1138 40.9822C48.7341 41.1623 49.2044 41.6656 49.5248 42.4924L51.0678 46.4739L49.8538 46.9443L49.5196 46.3532C49.3616 46.6946 49.1209 47.0032 48.7972 47.2787C48.4823 47.5509 48.0464 47.7949 47.4894 48.0108ZM47.4734 46.8459C47.8998 46.6806 48.2427 46.4677 48.502 46.207C48.7667 45.9343 48.9519 45.6373 49.0576 45.316L48.6377 44.2325L46.6796 44.9914C46.2619 45.1533 45.9893 45.354 45.8619 45.5936C45.7399 45.821 45.7429 46.1001 45.8711 46.4308C45.9959 46.7528 46.1941 46.9413 46.4656 46.9962C46.7371 47.0511 47.073 47.001 47.4734 46.8459ZM52.6457 45.8624L50.2477 39.6748L51.5531 39.1689L51.8714 39.7963C52.0655 39.4708 52.3254 39.1599 52.651 38.8635C52.9819 38.5551 53.3823 38.3098 53.8523 38.1277C54.6529 37.8174 55.3085 37.7786 55.819 38.0111C56.3296 38.2437 56.7383 38.7559 57.0452 39.5479L58.5983 43.5554L57.1885 44.1018L55.6607 40.1595C55.4752 39.6809 55.2453 39.3846 54.9709 39.2707C54.7052 39.1535 54.3026 39.1994 53.7631 39.4085C53.4411 39.5333 53.1487 39.7216 52.886 39.9736C52.632 40.2222 52.441 40.4914 52.3131 40.7812L54.0686 45.3109L52.6457 45.8624ZM60.1926 42.9376L57.7946 36.75L59.1 36.2441L59.4182 36.8715C59.6124 36.546 59.8722 36.2351 60.1978 35.9388C60.5287 35.6304 60.9292 35.3851 61.3991 35.203C62.1998 34.8927 62.8553 34.8538 63.3659 35.0864C63.8764 35.3189 64.2851 35.8312 64.5921 36.6231L66.1452 40.6307L64.7353 41.1771L63.2075 37.2348C63.022 36.7561 62.7921 36.4599 62.5177 36.346C62.2521 36.2287 61.8495 36.2746 61.3099 36.4837C60.9879 36.6085 60.6956 36.7969 60.4328 37.0489C60.1788 37.2974 59.9879 37.5666 59.86 37.8565L61.6154 42.3862L60.1926 42.9376ZM70.7955 38.9787C69.7163 39.3969 68.778 39.4552 67.9805 39.1537C67.183 38.8522 66.5717 38.1532 66.1468 37.0566C65.7623 36.0645 65.7111 35.1835 65.9933 34.4135C66.2755 33.6435 66.93 33.0595 67.9569 32.6615C68.8968 32.2973 69.6978 32.2721 70.36 32.586C71.0275 32.8879 71.5114 33.4261 71.8115 34.2006L72.2567 35.3494L67.727 37.1049C68.0293 37.6784 68.4071 38.0074 68.8603 38.092C69.3135 38.1767 69.9143 38.0739 70.6627 37.7839C70.976 37.6625 71.2862 37.5072 71.5933 37.3181C71.9004 37.1291 72.1573 36.9394 72.3638 36.7493L72.7685 37.7936C72.5373 38.0234 72.2507 38.2395 71.9088 38.4421C71.5756 38.6413 71.2045 38.8201 70.7955 38.9787ZM67.3678 36.178L70.6444 34.9082L70.4774 34.4774C70.3121 34.051 70.0665 33.7658 69.7405 33.6219C69.4111 33.4693 68.9679 33.5009 68.4109 33.7168C67.7495 33.9731 67.3483 34.2938 67.2072 34.6788C67.0748 35.0604 67.1283 35.5601 67.3678 36.178ZM76.2143 36.8786C75.7095 37.0742 75.2794 37.1008 74.9239 36.9583C74.565 36.8071 74.2743 36.4443 74.0517 35.8699L71.2136 28.5467L72.6364 27.9952L75.4239 35.188C75.5184 35.4317 75.626 35.5801 75.7467 35.6334C75.8675 35.6867 76.0149 35.6797 76.1889 35.6122C76.3978 35.5313 76.5878 35.4276 76.7591 35.3012L77.1587 36.3324C77.017 36.4574 76.8712 36.559 76.7213 36.6371C76.5834 36.7205 76.4144 36.8011 76.2143 36.8786Z" fill="white"/>
</svg>
